:FULLY-SPECIFIED
:FORCE-ALL-JOINTS-BE-3DOF
:DEGREES
356
root 9.4235 16.8179 13.9062 6.36266 6.96058 -0.729574
lfemur -12.7314 5.98825 -18.0101
ltibia 42.7607 0 0
lfoot -9.34642 6.5166 0
ltoes -4.75392 0 0
rfemur -26.1544 4.72886 24.7971
rtibia 35.3078 0 0
rfoot -15.755 1.93771 0
rtoes -18.13 0 0
lowerback -6.15726 -1.82734 -1.8911
upperback -1.0815 -2.32852 2.49154
thorax 2.57883 -1.19091 3.36096
lowerneck -19.7135 -5.87574 -12.7482
upperneck 21.2935 -7.62044 12.979
head 11.1834 -3.00466 5.70639
lclavicle 5.63572e-15 -3.69733e-14 0
lhumerus -39.8945 -25.7578 99.8637
lradius 32.4744 0 0
lwrist 11.6723 0 0
lhand -12.2626 -23.0068 0
lfingers 7.12502 0 0
lthumb 13.8023 6.48977 0
rclavicle 5.63572e-15 -3.69733e-14 0
rhumerus -39.5802 14.3304 -83.689
rradius 39.5143 0 0
rwrist -20.2632 0 0
rhand -30.1344 -24.6341 0
rfingers 7.12502 0 0
rthumb -3.44718 -54.5825 0
357
root 9.41588 16.8355 14.0447 6.33928 6.79702 -0.884489
lfemur -14.5872 5.98358 -18.0357
ltibia 44.5206 0 0
lfoot -9.90778 6.99043 0
ltoes -4.30193 0 0
rfemur -25.3263 4.8596 25.1357
rtibia 35.0454 0 0
rfoot -16.2116 1.92926 0
rtoes -18.1081 0 0
lowerback -6.08109 -1.69219 -1.74704
upperback -1.06159 -2.16069 2.50081
thorax 2.5354 -1.10547 3.30934
lowerneck -19.7645 -5.91131 -12.7244
upperneck 21.3289 -7.66745 12.9474
head 11.2115 -3.02583 5.68355
lclavicle 4.4203e-15 -3.7498e-14 0
lhumerus -40.3998 -25.1734 99.6882
lradius 32.1404 0 0
lwrist 11.7792 0 0
lhand -12.5086 -22.9217 0
lfingers 7.12502 0 0
lthumb 13.5654 6.59292 0
rclavicle 4.4203e-15 -3.7498e-14 0
rhumerus -39.1215 14.6671 -83.7355
rradius 39.951 0 0
rwrist -20.5046 0 0
rhand -30.2156 -24.6017 0
rfingers 7.12502 0 0
rthumb -3.52561 -54.5489 0
358
root 9.40826 16.8532 14.1832 6.31724 6.63266 -1.03902
lfemur -16.4085 5.97645 -18.0581
ltibia 46.2199 0 0
lfoot -10.4531 7.45308 0
ltoes -3.86775 0 0
rfemur -24.4947 4.98697 25.469
rtibia 34.7706 0 0
rfoot -16.6494 1.92315 0
rtoes -18.0856 0 0
lowerback -6.00857 -1.55781 -1.60385
upperback -1.04194 -1.99392 2.51045
thorax 2.49421 -1.02057 3.25852
lowerneck -19.8139 -5.94597 -12.7015
upperneck 21.3636 -7.71324 12.9167
head 11.239 -3.04647 5.6614
lclavicle 3.23665e-15 -3.79999e-14 0
lhumerus -40.8978 -24.5951 99.5143
lradius 31.8119 0 0
lwrist 11.8794 0 0
lhand -12.7445 -22.8379 0
lfingers 7.12502 0 0
lthumb 13.3381 6.69406 0
rclavicle 3.23665e-15 -3.79999e-14 0
rhumerus -38.6707 14.9938 -83.7825
rradius 40.3747 0 0
rwrist -20.7372 0 0
rhand -30.294 -24.5695 0
rfingers 7.12502 0 0
rthumb -3.60135 -54.5158 0
359
root 9.40065 16.8708 14.3217 6.29672 6.46801 -1.19293
lfemur -18.1891 5.96672 -18.0765
ltibia 47.8508 0 0
lfoot -10.9796 7.90275 0
ltoes -3.45366 0 0
rfemur -23.6608 5.1106 25.7962
rtibia 34.4826 0 0
rfoot -17.0661 1.92002 0
rtoes -18.0625 0 0
lowerback -5.94017 -1.42452 -1.46183
upperback -1.02264 -1.8286 2.52048
thorax 2.45549 -0.936419 3.20863
lowerneck -19.8614 -5.97965 -12.6797
upperneck 21.3973 -7.75771 12.8871
head 11.2656 -3.06654 5.64004
lclavicle 2.08891e-15 -3.84775e-14 0
lhumerus -41.3877 -24.0249 99.3431
lradius 31.4901 0 0
lwrist 11.9724 0 0
lhand -12.9691 -22.7556 0
lfingers 7.12502 0 0
lthumb 13.1219 6.79287 0
rclavicle 2.08891e-15 -3.84775e-14 0
rhumerus -38.2293 15.3091 -83.8299
rradius 40.7834 0 0
rwrist -20.9597 0 0
rhand -30.3693 -24.538 0
rfingers 7.12502 0 0
rthumb -3.67406 -54.4833 0
360
root 9.39303 16.8884 14.4601 6.2779 6.30354 -1.34599
lfemur -19.9227 5.95426 -18.0903
ltibia 49.406 0 0
lfoot -11.4847 8.33766 0
ltoes -3.06194 0 0
rfemur -22.8259 5.23013 26.1163
rtibia 34.1806 0 0
rfoot -17.459 1.92052 0
rtoes -18.0385 0 0
lowerback -5.87634 -1.2926 -1.32127
upperback -1.00378 -1.6651 2.53092
thorax 2.41949 -0.853203 3.15982
lowerneck -19.9069 -6.01227 -12.659
upperneck 21.43 -7.80078 12.8587
head 11.2914 -3.08601 5.61957
lclavicle 9.81213e-16 -3.89295e-14 0
lhumerus -41.8688 -23.4645 99.1755
lradius 31.1765 0 0
lwrist 12.0578 0 0
lhand -13.1808 -22.6751 0
lfingers 7.12502 0 0
lthumb 12.9179 6.88901 0
rclavicle 9.81213e-16 -3.89295e-14 0
rhumerus -37.7984 15.6119 -83.8777
rradius 41.1753 0 0
rwrist -21.1708 0 0
rhand -30.4411 -24.5073 0
rfingers 7.12502 0 0
rthumb -3.74338 -54.4517 0
361
root 9.38541 16.9061 14.5986 6.26096 6.13975 -1.49795
lfemur -21.6031 5.93891 -18.0988
ltibia 50.8777 0 0
lfoot -11.9657 8.75603 0
ltoes -2.69487 0 0
rfemur -21.9911 5.34518 26.4286
rtibia 33.8641 0 0
rfoot -17.8256 1.92529 0
rtoes -18.0135 0 0
lowerback -5.81755 -1.16236 -1.18248
upperback -0.985465 -1.5038 2.54179
thorax 2.38643 -0.771116 3.11223
lowerneck -19.9499 -6.04376 -12.6398
upperneck 21.4614 -7.84236 12.8318
head 11.3161 -3.10483 5.60011
lclavicle -8.22938e-17 -3.93545e-14 0
lhumerus -42.3403 -22.9161 99.0124
lradius 30.8722 0 0
lwrist 12.1351 0 0
lhand -13.3784 -22.5964 0
lfingers 7.12502 0 0
lthumb 12.7276 6.98215 0
rclavicle -8.22938e-17 -3.93545e-14 0
rhumerus -37.3795 15.9008 -83.9258
rradius 41.5483 0 0
rwrist -21.3694 0 0
rhand -30.509 -24.4775 0
rfingers 7.12502 0 0
rthumb -3.80897 -54.421 0
362
root 9.37779 16.9237 14.7371 6.24609 5.97714 -1.64859
lfemur -23.2238 5.92053 -18.1014
ltibia 52.2584 0 0
lfoot -12.4197 9.15606 0
ltoes -2.35472 0 0
rfemur -21.1577 5.45538 26.7322
rtibia 33.5321 0 0
rfoot -18.1635 1.93497 0
rtoes -17.9874 0 0
lowerback -5.76426 -1.0341 -1.04573
upperback -0.967773 -1.34508 2.55312
thorax 2.35655 -0.690348 3.06599
lowerneck -19.9902 -6.07404 -12.6221
upperneck 21.4913 -7.88235 12.8065
head 11.3396 -3.12297 5.58177
lclavicle -1.09747e-15 -3.97513e-14 0
lhumerus -42.8014 -22.3816 98.8547
lradius 30.5787 0 0
lwrist 12.2039 0 0
lhand -13.5604 -22.5199 0
lfingers 7.12502 0 0
lthumb 12.5523 7.07196 0
rclavicle -1.09747e-15 -3.97513e-14 0
rhumerus -36.9738 16.1746 -83.9742
rradius 41.9005 0 0
rwrist -21.5541 0 0
rhand -30.5727 -24.449 0
rfingers 7.12502 0 0
rthumb -3.87045 -54.3917 0
363
root 9.37018 16.9413 14.8756 6.23348 5.81619 -1.79767
lfemur -24.7786 5.89899 -18.0974
ltibia 53.5406 0 0
lfoot -12.8443 9.53599 0
ltoes -2.04379 0 0
rfemur -20.3268 5.56038 27.0263
rtibia 33.1841 0 0
rfoot -18.4701 1.95021 0
rtoes -17.9598 0 0
lowerback -5.71693 -0.90811 -0.911332
upperback -0.950799 -1.18932 2.56491
thorax 2.33009 -0.611092 3.02125
lowerneck -20.0275 -6.10304 -12.606
upperneck 21.5197 -7.92066 12.783
head 11.3618 -3.14038 5.56465
lclavicle -2.06018e-15 -4.01184e-14 0
lhumerus -43.2513 -21.8628 98.7034
lradius 30.2973 0 0
lwrist 12.2636 0 0
lhand -13.7255 -22.4459 0
lfingers 7.12502 0 0
lthumb 12.3933 7.15812 0
rclavicle -2.06018e-15 -4.01184e-14 0
rhumerus -36.5827 16.4321 -84.0229
rradius 42.2301 0 0
rwrist -21.7237 0 0
rhand -30.6318 -24.4218 0
rfingers 7.12502 0 0
rthumb -3.9275 -54.3637 0
